<?xml version="1.0" encoding="utf-8"?>
<!-- Generator: Adobe Illustrator 24.2.1, SVG Export Plug-In . SVG Version: 6.00 Build 0)  -->
<svg version="1.1" xmlns="http://www.w3.org/2000/svg" xmlns:xlink="http://www.w3.org/1999/xlink" x="0px" y="0px"
	 viewBox="0 0 1920 1080" style="enable-background:new 0 0 1920 1080;" xml:space="preserve">
<style type="text/css">
	.st0{display:none;}
	.st1{display:inline;fill:#462261;}
	.st2{display:inline;fill:#C5205C;}
	.st3{display:inline;fill:#F68895;}
	.st4{display:inline;fill:#FFDC5E;}
	.st5{display:inline;fill:#F8B34A;}
	.st6{display:inline;fill:#FB446C;}
	.st7{display:inline;fill:#F17785;}
	.st8{display:inline;fill:#FFFFFF;}
	.st9{display:inline;}
	.st10{fill:#C5205C;}
	.st11{display:inline;fill:#F55A37;}
	.st12{fill:#FFFFFF;}
</style>
<g id="GUY" class="st0">
	<path class="st1" d="M682.75,461.35c4.03-10.2,13.92-16.92,24.06-21.12c10.13-4.2,21.01-6.53,30.84-11.4
		c9.83-4.87,18.9-13.11,20.82-23.9c3.76-21.23-20.9-39.44-18.01-60.81c0.86-6.38,4.17-12.22,5.05-18.59
		c1.61-11.63-6.18-23.86-17.4-27.32c-11.22-3.46-24.54,2.27-29.75,12.79c-16.48-6.11-36.1-7.52-51.78,0.42
		c-15.68,7.94-26.49,26.51-22,43.51c3.14,11.89,13,22.03,12.61,34.33c-0.24,7.57-4.39,14.37-7.82,21.13
		c-3.43,6.76-6.28,14.62-3.79,21.78c2.74,7.9,10.96,12.28,18.49,15.92C657.03,454.36,669.76,455.07,682.75,461.35z"/>
	<path class="st2" d="M711.89,496.29c14.8,26.39,29.61,52.79,44.41,79.18c6.83,12.18,13.76,24.49,23.25,34.73
		c9.5,10.24,21.96,18.38,35.83,19.97c-12.69,5.91-26.22,11.4-40,13.87c-6.47,1.16-13.66,1.79-19.13-1.86
		c-5.57-3.71-7.71-10.74-9.47-17.2C735.24,582.46,723.43,538.83,711.89,496.29z"/>
	<path class="st1" d="M1268.36,773.2c9.57-0.8,18.14-6.91,23.67-14.77c5.53-7.85,8.35-17.3,10.09-26.75
		c1.74-9.44,2.49-19.05,4.35-28.48c0.84-4.25,1.96-8.59,4.63-12c2.66-3.41,7.23-5.68,11.38-4.46c3.21,0.94,5.6,3.77,6.85,6.87
		c1.25,3.1,1.54,6.5,1.82,9.83c1.12,13.51,2.23,27.21-0.2,40.55c-2.43,13.34-8.87,26.5-20.05,34.17c-8.84,6.06-19.9,8.21-30.62,7.96
		s-21.25-2.71-31.68-5.16C1254.99,778.51,1261.54,773.77,1268.36,773.2z"/>
	<path class="st3" d="M1128.91,751.24l-115.27-221.09c-8.34-15.5-27.89-20.98-43.07-12.1L769.87,633.18l-3.19,2.18l-7.51-20.54
		l-50.02-136.76l-13.34-30.14c0.03-0.43,0.64-2.4,1.61-5.33c3.23-9.78,10.5-30.18,14.04-39.32c-9.33-5.44-20.8-7.42-31.61-7.43
		c-1.78,5.59-3.84,11.1-6.14,16.51c-0.51,1.2-1.04,2.39-1.59,3.58c-0.05,0.11-0.1,0.23-0.16,0.34
		c-6.42,14.25-14.6,27.79-23.96,40.32c-0.64,0.87-1.31,1.75-1.97,2.62c-32.94,42.85-43.68,100.2-51.84,153.63
		c-6.22,40.7-4.87,83.31,7.43,122.35c1.34,4.25,2.8,8.45,4.41,12.61c0.03,0.08,0.06,0.15,0.09,0.23
		c5.42,14.01,16.89,24.81,31.09,29.65c13.79,4.69,28.15,7.45,42.67,8.19c2.71,0.13,5.42,0.21,8.12,0.2l581.46-0.41l1.33-15.32
		L1128.91,751.24z M828.9,709.65l153.88-105.5l109.17,141.51L828.9,709.65z"/>
	<path class="st4" d="M1128.91,751.24l-42.62-81.74l-72.65-139.34c-8.34-15.5-27.88-20.98-43.07-12.09L769.87,633.18l-2.65,1.82
		l-0.54,0.36l-0.18-0.47l-7.33-20.08c-2.9,6.29-6.12,12.45-9.62,18.42c-13.53,23.12-31.4,43.7-52.53,60.17
		c-27.67,21.57-60.82,35.97-95.41,41.77c1.33,4.24,2.8,8.45,4.41,12.6c0.02,0.08,0.06,0.16,0.08,0.23
		c5.41,14.01,16.89,24.81,31.09,29.64c13.78,4.7,28.15,7.45,42.67,8.19c2.7,0.14,5.41,0.21,8.12,0.21l122.36-0.09l459.09-0.32
		l1.32-15.32L1128.91,751.24z M828.9,709.65l153.88-105.5l92.07,122.41l14.26,18.96L828.9,709.65z"/>
	<path class="st5" d="M732.1,767.64c25.55,8.2,51.74,14.33,78.26,18.34L688,786.06c-2.71,0-5.42-0.07-8.12-0.21
		c-14.52-0.74-28.89-3.49-42.67-8.19c-14.21-4.83-25.68-15.64-31.09-29.64c-0.02-0.08-0.06-0.16-0.08-0.23
		c-1.61-4.15-3.08-8.36-4.41-12.6c34.59-5.8,67.74-20.21,95.41-41.77c21.13-16.48,39-37.06,52.53-60.17
		c5.61,0.24,11.26,0.84,16.95,1.65c0.24,0.03,0.47,0.06,0.72,0.1c28.82,4.13,58.32,13.16,85.49,6.16
		c-46.87,14.88-90.78,39.01-128.47,70.61c-5.67,4.74-11.29,9.78-15.07,16.13c-3.78,6.35-5.51,14.31-2.93,21.24
		C710.09,759.44,721.65,764.28,732.1,767.64z"/>
	<path class="st6" d="M769.87,633.18c-0.02,0.15-0.04,0.31-0.06,0.46c-0.12,1.04-0.26,2.07-0.41,3.09
		c-9.89,65.34-93.82,95.53-163.37,111.06c-1.08-2.8-2.09-5.62-3.05-8.45c-13.57-40.15-15.23-84.35-8.79-126.51
		c8.16-53.43,18.89-110.78,51.84-153.63c0.65-0.87,1.34-1.74,1.97-2.62c5.53,10.68,12.28,20.82,22.77,26.21
		c9.43,4.87,21.14,5.01,30.69,0.4c2.79-1.34,5.37-3.09,7.69-5.15l57.52,157.32L769.87,633.18z"/>
	<path class="st5" d="M1128.91,751.24l-39.81-5.72l-14.26-18.96c5.82-6.37,10.18-14.09,12.54-22.39
		c3.22-11.29,2.96-23.66-1.09-34.68L1128.91,751.24z"/>
	<path class="st2" d="M769.4,636.74c-9.89,65.34-93.82,95.53-163.37,111.06c-1.08-2.8-2.09-5.62-3.05-8.45
		c17.45-1.49,34.7-5.37,51.08-11.52c11.8-4.42,23.89-10.7,29.8-21.81c5.55-10.42,4.52-23.37,0.07-34.3
		c-4.47-10.94-12-20.3-19.43-29.48c16.63,7.02,35.39,10.83,52.53,5.17c9.32-3.08,17.98-7.96,27.37-10.79
		C752.53,634.17,761.71,633.45,769.4,636.74z"/>
	<polygon class="st1" points="949.22,588.67 896.03,619.66 890.25,612.95 880.86,602.03 916.97,567.12 922.49,561.8 	"/>
	<polygon class="st5" points="828.9,709.65 810.03,706.51 983.49,594.96 1089.1,745.52 982.78,604.15 	"/>
	<path class="st7" d="M711.46,403.26c-3.54,9.14-10.81,29.54-14.04,39.32c-5.28-11.24-14.37-20.72-25.46-26.31
		c0.06-0.11,0.11-0.23,0.16-0.34c0.55-1.2,1.07-2.38,1.59-3.58c2.3-5.42,4.36-10.93,6.14-16.51
		C690.66,395.84,702.13,397.81,711.46,403.26z"/>
	<path class="st3" d="M723.04,394.45c0,0.01,0,0.01,0,0.02c-1.67,6.45-4.3,12.38-7.7,17.16c-0.01,0-0.01,0.01-0.01,0.01
		c-4.37,6.1-9.99,10.26-16.5,11.04c-13.9,1.69-27.65-12.58-34.49-30.02c0.03-0.07,0.08-0.14,0.12-0.21c1.7-2.88,3.74-5.5,5.99-7.95
		c3.89-4.22,8.43-7.91,12.99-11.44c7.19-5.56,14.66-10.99,20.3-18.13c2.57-3.26,4.73-6.98,6.15-10.89
		c7.39,5.15,12.86,13.86,14.61,26.15C725.63,378.21,725.03,386.68,723.04,394.45z"/>
	<path class="st8" d="M936.45,588.13c0,0-36.11,20.15-46.2,24.82l-9.4-10.92l36.12-34.91L936.45,588.13z"/>
	<path class="st3" d="M862.43,621.14c3.68-15.41,16.47-28.27,31.85-32.05c-2.73,2.26-4.65,6.09-6.04,9.36
		c-1.38,3.27-0.78,7.67,2.28,9.48c2.98,1.77,6.77,0.44,9.96-0.92c5.85-2.48,11.7-4.97,17.55-7.45c3.67-1.56,8.32-2.97,11.27-0.31
		c2.08,1.87,2.32,5.18,1.28,7.78c-1.05,2.6-3.13,4.62-5.23,6.46c-17.55,15.32-41.37,23.23-64.6,21.47
		C860.89,631.26,861.57,624.75,862.43,621.14z"/>
	<path class="st6" d="M678.12,515.39c18.84,30.78,34.37,63.58,46.24,97.65c45.96,1.26,91.59,3.36,137.55,4.63
		c3.35,6.61,4.51,12.33,3.6,19.68c-50.08,20.43-103.55,32.67-157.55,35.02c-10.79,0.47-21.14-4.19-28.15-12.41
		c-31.04-36.39-50.09-83.69-53.74-131.28C640.23,517.68,660.19,514.7,678.12,515.39z"/>
	<g class="st9">
		<path class="st10" d="M865.35,637.67c0.04,0.1-1.02,0.63-3.09,1.54c-2.07,0.91-5.12,2.24-9.11,3.8c-3.98,1.6-8.89,3.43-14.63,5.49
			c-5.75,2.01-12.32,4.24-19.67,6.47c-7.33,2.28-15.44,4.5-24.19,6.73c-8.75,2.21-18.18,4.28-28.16,6.19
			c-9.97,1.91-20.51,3.6-31.48,4.95c-2.74,0.38-5.52,0.64-8.31,0.96c-2.79,0.32-5.61,0.61-8.5,0.82
			c-5.75,0.42-11.77,0.51-17.83-0.67c-3.02-0.6-5.99-1.56-8.77-2.85c-2.78-1.28-5.37-2.88-7.76-4.66
			c-4.79-3.57-8.79-7.81-12.36-12.14c-7-8.76-12.92-17.69-18.04-26.56c-5.11-8.86-9.32-17.64-12.73-26.07
			c-3.41-8.43-6.13-16.45-8.18-23.9c-2.02-7.45-3.54-14.27-4.52-20.32c-0.25-1.51-0.49-2.97-0.72-4.37
			c-0.2-1.41-0.35-2.77-0.52-4.07c-0.16-1.3-0.31-2.54-0.45-3.73c-0.14-1.19-0.2-2.32-0.29-3.4c-0.16-2.15-0.31-4.05-0.38-5.71
			c-0.04-1.66-0.05-3.06-0.05-4.19c0.02-2.27,0.12-3.46,0.33-3.47c0.21-0.01,0.5,1.16,0.86,3.38c0.18,1.11,0.38,2.49,0.6,4.12
			c0.26,1.63,0.56,3.5,0.89,5.6c0.17,1.05,0.31,2.17,0.53,3.33c0.22,1.16,0.44,2.38,0.68,3.65c0.23,1.27,0.48,2.6,0.73,3.98
			c0.3,1.37,0.6,2.8,0.92,4.27c1.23,5.91,2.97,12.56,5.15,19.83c2.2,7.26,5.04,15.08,8.5,23.29c3.46,8.21,7.66,16.77,12.72,25.42
			c5.03,8.63,10.91,17.44,17.64,25.91c3.41,4.16,7.16,8.14,11.49,11.4c4.32,3.27,9.24,5.69,14.64,6.79
			c5.42,1.11,11.05,1.11,16.63,0.76c2.79-0.17,5.59-0.43,8.36-0.71c2.77-0.29,5.53-0.51,8.25-0.85c10.9-1.2,21.38-2.71,31.32-4.43
			c9.93-1.73,19.34-3.59,28.09-5.6c8.74-2.02,16.86-4.03,24.21-6.1c7.37-2.01,13.97-4.03,19.77-5.84
			c5.78-1.85,10.75-3.47,14.79-4.88c4.01-1.38,7.14-2.45,9.32-3.2C864.17,637.9,865.31,637.57,865.35,637.67z"/>
	</g>
	<path class="st7" d="M723.04,394.45c0,0.01,0,0.01,0,0.02c-1.67,6.45-4.3,12.38-7.7,17.16c6.29-12.33,7.9-27.11,3.93-40.41
		c-0.9-2.99-2.12-6.01-4.36-8.2c-2.24-2.19-5.7-3.36-8.59-2.16c-2.79,1.17-4.32,4.1-6.26,6.43c-7.35,8.85-21.37,9.46-29.61,17.21
		c3.89-4.22,8.43-7.91,12.99-11.44c7.19-5.56,14.66-10.99,20.3-18.13c2.57-3.26,4.73-6.98,6.15-10.89
		c7.39,5.15,12.86,13.86,14.61,26.15C725.63,378.21,725.03,386.68,723.04,394.45z"/>
</g>
<g id="BUBLLE" class="st0">
	<path class="st11" d="M933.11,524.7l0.82,36.18l22.2-31.08c19.23-0.44,38.94,0.76,56.83-6.32c17.89-7.08,33.83-20.45,41.1-38.27
		c7.27-17.81,4.53-40.07-9.03-53.72c-9.16-9.22-22-13.78-34.7-16.55c-22.06-4.82-45.73-4.95-66.61,3.64
		c-20.88,8.59-38.47,26.88-42.53,49.09C897.15,489.88,911.96,516.81,933.11,524.7z"/>
</g>
<g id="HEART" class="st0">
	<path class="st8" d="M977.99,494.09c2.98-5.66,8.49-9.48,13.9-12.89c5.41-3.41,11.09-6.8,14.78-12.02
		c3.69-5.22,4.8-12.9,0.73-17.83c-3.54-4.28-10.17-5.19-15.23-2.9c-5.06,2.29-8.74,7.2-10.34,12.52
		c-0.94-5.93-5.75-10.37-11.23-12.83c-5.48-2.46-12.35-1.69-16.96,2.16c-4.61,3.85-6.57,10.69-4.4,16.3
		c2.43,6.28,8.91,9.84,14.78,13.15C969.89,483.06,976.69,487.48,977.99,494.09z"/>
</g>
<g id="HASHTAG">
	<path class="st12" d="M993.37,465.99c10.28-0.65,17.47-2.13,17.47-3.87c0-1.7-6.87-3.16-16.78-3.84
		c0.71-10.56,0.15-18.13-1.6-18.36c-1.79-0.23-4.29,7.26-6.28,18c-1.48-0.03-2.98-0.06-4.52-0.06c-1.31,0-2.58,0.02-3.85,0.04
		c0.67-10.37,0.11-17.76-1.62-17.98c-1.8-0.23-4.33,7.4-6.33,18.3c-10.24,0.65-17.39,2.13-17.39,3.86c0,1.66,6.58,3.1,16.15,3.8
		c-0.11,0.81-0.23,1.63-0.33,2.46c-0.15,1.16-0.28,2.3-0.4,3.42c-10.28,0.65-17.47,2.13-17.47,3.87c0,1.69,6.87,3.16,16.78,3.84
		c-0.71,10.56-0.15,18.13,1.6,18.36c1.79,0.23,4.29-7.26,6.28-18c1.48,0.03,2.98,0.06,4.52,0.06c1.31,0,2.58-0.02,3.85-0.04
		c-0.67,10.37-0.11,17.76,1.62,17.98c1.8,0.23,4.33-7.4,6.33-18.3c10.24-0.65,17.39-2.13,17.39-3.86c0-1.66-6.58-3.09-16.15-3.8
		c0.11-0.81,0.23-1.63,0.33-2.46C993.12,468.26,993.25,467.12,993.37,465.99z M979.6,471.42c-1.08,0-2.13,0.01-3.18,0.02
		c0.09-0.67,0.19-1.34,0.27-2.02c0.14-1.06,0.26-2.1,0.37-3.13c1.5,0.04,3.02,0.06,4.59,0.06c1.08,0,2.13-0.01,3.18-0.02
		c-0.09,0.67-0.19,1.34-0.27,2.02c-0.14,1.06-0.26,2.1-0.37,3.13C982.69,471.44,981.17,471.42,979.6,471.42z"/>
</g>
<g id="LAUGH" class="st0">
	<g class="st9">
		<path class="st12" d="M827.64,170.4c-18.5,0-33.51,14.98-33.51,33.48c0,18.5,15,33.48,33.51,33.48
			c18.48,0,33.48-14.98,33.48-33.48C861.12,185.38,846.12,170.4,827.64,170.4z M809.49,203.88c-0.42-0.48,0.37-2.08,2.39-3.96
			c1.51-1.45,3.77-3,6.5-4.27c-3.68-4.03-7.01-6.55-6.5-7.56c0.28-0.57,1.97-0.46,4.38,0.63c2.39,1.07,5.47,3.22,8.08,6.39
			l2.23,2.67l-3.35,1.18l-0.53,0.18C815.64,201.54,810.43,204.89,809.49,203.88z M827.64,223.59c-8.63,0-15.61-6.99-15.61-15.59
			h31.21C843.23,216.61,836.25,223.59,827.64,223.59z M846.34,203.88c-0.94,1.01-6.13-2.34-13.18-4.73l-0.55-0.18l-3.35-1.18
			l2.23-2.67c2.63-3.18,5.69-5.32,8.1-6.39c2.41-1.1,4.1-1.2,4.38-0.63c0.48,1.01-2.85,3.53-6.53,7.56c2.74,1.27,4.99,2.83,6.5,4.27
			C845.97,201.8,846.78,203.4,846.34,203.88z"/>
		<path class="st12" d="M837.28,217.88c-2.65,2.12-6,3.37-9.64,3.37c-3.66,0-7.01-1.25-9.66-3.37c2.32-2.72,5.78-4.42,9.66-4.42
			C831.49,213.45,834.95,215.16,837.28,217.88z"/>
	</g>
</g>
<g id="LIKE" class="st0">
	<g class="st9">
		<path class="st12" d="M964.08,491.82c-1.27,1.1-2.85,1.76-4.45,1.85c-1.26,0.07-2.56-0.16-3.72-0.7
			c-1.25-9.21-1.23-18.64,0.02-27.83c2.62-1.01,5.7-0.55,7.98,1.31C962.48,475.02,962.44,483.26,964.08,491.82z"/>
		<path class="st12" d="M967.54,466.01c4.14-0.76,7.44-4.72,7.45-8.93c0-1.79-0.52-3.53-0.91-5.28c-0.38-1.75-0.62-3.6-0.06-5.3
			c0.56-1.7,2.12-3.18,3.91-3.13c1.32,0.04,2.51,0.9,3.25,2c0.74,1.09,1.09,2.4,1.37,3.69c0.94,4.45,1.05,9.08,0.33,13.57
			c4.41-1.83,9.22-2.81,14-2.79c2.72,0.01,5.68,0.43,7.58,2.38c1.67,1.71,2.15,4.47,1.17,6.65c-0.99,2.18-3.38,3.63-5.77,3.51
			c1.24,1.98,1.65,4.92,0.92,7.14c-0.72,2.23-2.47,4.1-4.63,4.97c1.83,3.19-0.07,7.84-3.49,9.2c-1.93,0.76-4.08,0.56-6.14,0.34
			c-6.31-0.67-12.61-1.33-18.92-2C965.64,483.23,965.76,474.84,967.54,466.01z"/>
	</g>
</g>
</svg>
