<?xml version="1.0" encoding="utf-8"?>
<!-- Generator: Adobe Illustrator 24.2.1, SVG Export Plug-In . SVG Version: 6.00 Build 0)  -->
<svg version="1.1" xmlns="http://www.w3.org/2000/svg" xmlns:xlink="http://www.w3.org/1999/xlink" x="0px" y="0px"
	 viewBox="0 0 1920 1080" style="enable-background:new 0 0 1920 1080;" xml:space="preserve">
<style type="text/css">
	.st0{display:none;}
	.st1{display:inline;fill:#462261;}
	.st2{display:inline;fill:#2795F8;}
	.st3{display:inline;fill:#0577E7;}
	.st4{display:inline;fill:#703CD5;}
	.st5{display:inline;fill:#F68895;}
	.st6{display:inline;fill:#F17785;}
	.st7{display:inline;fill:#371A4F;}
	.st8{display:inline;fill:#E96077;}
	.st9{display:inline;fill:#462161;}
	.st10{display:inline;fill:#4625AC;}
	.st11{display:inline;}
	.st12{fill:#F68895;}
	.st13{fill:#F17785;}
	.st14{fill:#4625AC;}
	.st15{display:inline;fill:#FB446C;}
	.st16{display:inline;fill:#FFFFFF;}
	.st17{fill:#FFFFFF;}
</style>
<g id="GUY" class="st0">
	<path class="st1" d="M900.15,944.41c-3.3,27.77-25.41,52.31-52.69,58.47c-8.43,1.91-17.22,2.21-25.45,4.84
		c-8.23,2.63-16.25,8.35-18.29,16.75c-1.93,7.95,1.99,16.31,7.54,22.32c14.16,15.32,38.44,18.59,57.86,10.99
		c19.42-7.6,34.17-24.42,43.2-43.23c9.03-18.8,12.95-39.61,15.97-60.25C919.37,949.82,909.07,948.89,900.15,944.41z"/>
	<path class="st1" d="M1019.79,891.86c13.18,14.91,16.06,38.05,6.95,55.73c-4.29,8.33-10.86,15.31-15.31,23.56
		c-4.44,8.25-6.46,18.9-1.31,26.73c5.74,8.72,18.6,10.41,28.09,6.06c9.49-4.34,16.09-13.23,21.1-22.38
		c8.43-15.38,13.6-33,11.83-50.46c-1.77-17.45-11.19-34.58-26.52-43.1c-9.98-5.55-22.51-7.8-29.33-16.97
		C1016,877.74,1019.08,885.14,1019.79,891.86z"/>
	<path class="st2" d="M1019.51,858.49c-14.92-18.52-30.65-36.33-47.13-53.39c8.96-40.89,16.77-84.81,23.42-129.62
		c10.93-73.56,18.71-149.46,23.31-218.02c0,0-61.87-121.9-136.37-117.06c-18.7,1.21-38.2,10.4-57.7,31.51
		c-23.22,25.12-40.35,55.42-52.99,86.98C731.77,559.55,737.27,689,737.27,689c42.58,60.56,95.36,115.93,158.91,154.96
		c2.96,1.82,5.94,3.59,8.95,5.34c-3.02,35.4-4.14,70.83-10.65,105.56c11.37,4.88,24.1,9,35.47,13.89
		c9.42-31.39,18.15-62.98,26.18-94.75c5.08,2.3,10.21,4.51,15.35,6.62c17.28,7.14,34.92,13.3,52.84,18.41
		c4.93-4.4,10.1-10.49,15.02-14.88C1032.89,875.46,1026.29,866.9,1019.51,858.49z M838.01,686.45c0.56-1.1,1.11-2.22,1.66-3.35
		c19.26-39.06,36.19-89.83,55.57-128.21c8.91,57.52,13.63,135.7,13.89,194.33C884.67,728.72,864.98,703.85,838.01,686.45z"/>
	<path class="st3" d="M1019.11,457.46c-4.6,68.56-12.38,144.46-23.31,218.02c-2.3-26.22-7.13-52.22-14.41-77.52
		c-6.2-21.52-14.54-43.17-29.97-59.4c-22.66-23.83-56.69-32.29-88.85-39.21c-32.15-6.92-66.17-14.26-90.16-36.77
		c30.03-45.96,65.51-90.72,110.32-122.18C957.23,335.56,1019.11,457.46,1019.11,457.46z"/>
	<path class="st4" d="M1086.67,370.69c-2.33,19.73-7.63,39.08-15.76,56.97c-17.37,4.07-34.2,1.76-49.64-7.55
		c-1.16,19.21-1.65,37.79-2.8,57c-0.01,0.31-0.02,0.61-0.05,0.92c-40.21,13.7-84.15,20.86-126.36,20.22
		c-41.89-5.44-83.13-18.68-120.94-38.03c1.43-17.06,2.41-33.69,3.73-50.64c0.18-2.41,0.38-4.83,0.59-7.26
		c-6.22,2.62-12.48,4.23-18.77,4.89c-10.5,1.11-21.05-0.48-31.44-4.56c-10.92-37.78-9.83-79.72,3.08-117.08
		c0.93-2.69,1.92-5.35,2.97-7.99c13.51-33.99,36.78-63.42,65.72-82.88c15.83-10.65,33.01-18.22,50.72-24.34
		c15.6-5.39,31.61-9.62,47.49-13.8c6.5,3.15,13.76,6.66,20.85,10.08c7.5-2.37,11.31-5.13,18.2-7.32
		c9.55,4.06,19.51,8.19,29.47,12.61c23.68,10.49,47.4,22.66,66.11,39.61c21.15,19.18,37.59,44.42,47.49,72.48
		c3.14,8.86,5.63,18.02,7.41,27.34C1088.43,330.8,1089.05,350.93,1086.67,370.69z"/>
	<path class="st5" d="M963.74,171.92c-13.67,25.73-37.17,42.05-62.64,40.2c-23.25-1.67-42.69-18.09-53.36-41.78
		c9.85-3.4,19.87-6.34,29.91-9.09c1.55-0.43,3.1-0.86,4.66-1.27c4.3-1.16,8.62-2.3,12.92-3.42c6.38,3.09,13.49,6.53,20.46,9.89
		c0.13,0.07,0.26,0.13,0.39,0.2c0.59-0.18,1.16-0.38,1.7-0.56c6.42-2.24,10.14-4.75,16.5-6.76c0.09,0.04,0.17,0.07,0.26,0.11
		C944,163.45,953.86,167.53,963.74,171.92z"/>
	<path class="st5" d="M919.71,192.8c-8.86,3.78-19.12,3.53-28.26,0.5c-9.14-3.03-17.25-8.69-24.23-15.33
		c3.95-5.11,7.5-10.77,10.41-16.72c0.53-1.08,1.04-2.18,1.52-3.28c2.09-4.74,3.73-9.64,4.82-14.59
		c18.09-4.51,34.8-12.58,49.16-24.48c-2.16,13.38-1.76,27.17,1.14,40.42c0,0.09,0.02,0.16,0.05,0.23c0.9,4.16,2.07,8.25,3.47,12.26
		C940.97,180.9,928.56,189.02,919.71,192.8z"/>
	<path class="st6" d="M934.52,159.43c-0.06,0.05-0.13,0.09-0.21,0.12c-5.08,3.12-10.71,5.33-16.55,6.53
		c-0.7,0.13-1.39,0.26-2.09,0.37c-2.38,0.38-4.78,0.59-7.19,0.61c-9.15,0.1-18.31-2.42-26.19-7.08c-1.08-0.62-2.11-1.3-3.14-2
		c2.09-4.74,3.73-9.64,4.82-14.59c18.09-4.51,34.8-12.58,49.16-24.48c-2.16,13.38-1.76,27.17,1.14,40.42
		C934.35,159.35,934.44,159.39,934.52,159.43z"/>
	<path class="st6" d="M880.94,85.21c-0.1-1.44-0.2-2.92-0.86-4.2c-0.66-1.28-2.02-2.32-3.45-2.13c-1.38,0.18-2.38,1.38-3.12,2.56
		c-4.06,6.48-4.47,15.08-1.04,21.91C874.95,97.4,881.37,91.64,880.94,85.21z"/>
	<path class="st7" d="M880.9,56.95c-3.64,11.37-3.01,24.06,1.74,35.01C887.92,81.55,886.96,66.92,880.9,56.95z"/>
	<path class="st8" d="M933.94,93.96c0.92-1.68,1.85-3.38,3.16-4.78c1.3-1.4,3.04-2.5,4.95-2.63c3.48-0.25,6.53,2.83,7.34,6.22
		c0.81,3.39-0.11,6.96-1.31,10.23c-0.92,2.53-2.04,5.03-3.74,7.12c-1.7,2.09-4.06,3.74-6.73,4.14c-2.66,0.4-5.61-0.63-7.08-2.89
		C932.49,105.53,934.15,100.11,933.94,93.96z"/>
	<path class="st5" d="M933.71,108.82c-0.12,0.68-0.26,1.37-0.39,2.05c-2.49,12.24-6.92,24.69-16.17,33.08
		c-8.23,7.46-20.18,10.91-30.91,8.08c-10.73-2.84-19.65-12.28-20.99-23.31c-0.9-7.43,1.47-14.89,4.64-21.66
		c3.18-6.77,7.2-13.15,9.96-20.11c2.75-6.97,5.02-16.62,2.77-23.76l0.92-0.48c16.55-8.57,34.87-9.61,51.31-0.68
		C937.01,77.56,936.61,93.44,933.71,108.82z"/>
	<path class="st6" d="M933.71,108.82c-4.69,2.33-9.67,4.09-14.78,5.19c4.95-7.3,8.35-15.65,9.88-24.32
		c0.54-3.04,0.86-6.18,0.23-9.22c-0.61-3.03-2.26-5.96-4.9-7.55c-2.54-1.53-5.68-1.69-8.63-1.31c-2.93,0.38-5.79,1.23-8.74,1.58
		c-8.85,1-18.09-3.21-23.22-10.47c16.55-8.57,34.87-9.61,51.31-0.68C937.01,77.56,936.61,93.44,933.71,108.82z"/>
	<path class="st1" d="M951.47,62.65c-1.37,3.34-3.79,6.11-5.76,9.13c-7.69,11.71-8.42,26.45-10,40.37
		c-1.56,13.92-4.89,28.93-15.73,37.79c-11,8.98-26.89,9.11-40.65,5.62c-6.82-1.74-13.84-4.6-18.87-9.3c-2.19-2.02-4-4.39-5.26-7.16
		c-3.81-8.37-1.55-18.51,3.46-26.22c5.02-7.7,11.22-14.31,18.49-19.94c-1.14,8.25,5.67,17.54,13.4,20.63
		c7.74,3.09,16.76,1.64,24.07-2.37c3.58-1.97,6.83-4.53,9.59-7.55c3.58-3.9,6.37-8.52,8.05-13.53c2.99-8.89,1.52-16.73-2.3-25.3
		c-10.79,3.85-22.47,6.34-33.71,4.12c-4.94-0.97-9.78-3.01-13.9-5.94c-5.26-3.72-9.38-8.86-11.1-15.05
		c-2.46-8.8,0.39-18.79,6.87-25.25c6.47-6.45,16.23-9.3,25.24-7.72c6.27,1.1,12.11,4.27,16.65,8.75c1.98,1.94,3.72,4.13,5.13,6.5
		c3.83,6.4,6.16,14.68,13.01,17.63c4.08,1.77,9.31,1.33,12.32,4.61C952.92,55.12,952.83,59.31,951.47,62.65z"/>
	<path class="st7" d="M951.47,62.65c-1.37,3.34-3.79,6.11-5.76,9.13c-7.69,11.71-8.42,26.45-10,40.37
		c-1.56,13.92-4.89,28.93-15.73,37.79c-11,8.98-26.89,9.11-40.65,5.62c-6.82-1.74-13.84-4.6-18.87-9.3
		c3.58,1.92,7.32,3.52,11.23,4.66c10.62,3.09,22.77,2.42,31.91-3.84c5.74-3.92,9.96-9.78,12.97-16.06
		c3.01-6.28,4.88-13.03,6.75-19.74c0.7-2.48,1.39-5.12,0.89-7.63c3.58-3.9,6.37-8.52,8.05-13.53c2.99-8.89,1.52-16.73-2.3-25.3
		c-10.79,3.85-22.47,6.34-33.71,4.12c-4.94-0.97-9.78-3.01-13.9-5.94c6.56,1.63,13.22,3.23,19.98,3.02
		c6.91-0.21,14.03-2.53,18.59-7.71c5.45-6.21,6.27-15.47,4.03-23.42c-1.1-3.95-2.86-7.63-4.95-11.16c1.98,1.94,3.72,4.13,5.13,6.5
		c3.83,6.4,6.16,14.68,13.01,17.63c4.08,1.77,9.31,1.33,12.32,4.61C952.92,55.12,952.83,59.31,951.47,62.65z"/>
	<path class="st9" d="M932.03,284.42l-6.38,82.75c-0.01,3.31-2.71,6-6.03,5.98L887,373.05c-3.31-0.01-6-2.71-5.98-6.03l-3.39-81.96
		c0.01-3.31,2.71-5.99,6.03-5.98l42.4-0.68C929.36,278.42,932.04,281.11,932.03,284.42z"/>
	<path class="st10" d="M1086.67,370.69c-2.33,19.73-7.63,39.08-15.76,56.97c-17.37,4.07-34.2,1.76-49.64-7.55
		c-1.16,19.21-1.65,37.79-2.8,57c-11.89-27.34-31.88-51.19-56.9-67.43c-30.52-19.83-68.3-28.19-104.33-23.1
		c-28.26,4-54.8,15.8-82.39,23c0.18-2.41,0.38-4.83,0.59-7.26c-6.22,2.62-12.48,4.23-18.77,4.89c-0.39-2,0.04-4.16,1.33-6.38
		c2.63-4.5,7.15-7.5,11.51-10.35c25.29-16.5,50.8-33.11,78.8-44.43c28-11.31,59.01-17.12,88.63-11.17
		c41.68,8.36,78.35,39.22,120.83,37.89C1067.44,372.45,1077.01,370.45,1086.67,370.69z"/>
	<path class="st5" d="M1070.92,427.69c-7.96,1.86-15.8,2.38-23.46,1.49c-9.04-1.03-17.82-4.01-26.18-9.06
		c-35.3-16.73-67.31-39.68-94.51-67.73l-5.1-5.27c2.3-10.66,6.28-20.51,11.57-30.03c24.75,0.65,48.22,8.26,69.98,20.08
		c-0.54-10.93-2.38-21.92-5.43-32.49c-0.75-2.59-1.55-5.17-2.44-7.71c27.83,3.03,56.41-1.6,81.98-12.94
		c3.14,8.86,5.63,18.02,7.39,27.34C1092.13,350.21,1087.18,391.86,1070.92,427.69z"/>
	<path class="st6" d="M1070.92,427.69c-7.96,1.86-15.8,2.38-23.46,1.49c13.48-12.33,22.11-29.93,23.33-48.18
		c1.39-20.71-6.76-41.85-21.68-56.26c-13.57-13.09-32.49-20.4-51.31-20.05c-0.75-2.59-1.55-5.17-2.44-7.71
		c27.83,3.03,56.41-1.6,81.98-12.94c3.14,8.86,5.63,18.02,7.39,27.34C1092.13,350.21,1087.18,391.86,1070.92,427.69z"/>
	<g class="st11">
		<path class="st12" d="M879.84,349.04l-0.18,0.16c-15.02,12.85-31.47,23.81-48.96,32.72c-17.49,8.92-36.03,15.78-55.26,20.4
			c-16.61,6.99-33.6,6.86-50.2,0.33c-10.93-37.78-9.83-79.72,3.08-117.08c0.26-0.75,0.51-1.48,0.77-2.21
			c0.7-1.94,1.43-3.87,2.2-5.78c20.75,13.86,45.59,21.63,70.56,21.84c-1.2,15.93-5.63,32.11-11.37,47.09c-0.18,0.5-0.38,1-0.57,1.5
			c0.31-0.12,0.61-0.24,0.92-0.38c1.72-0.7,3.43-1.39,5.15-2.1c25.52-10.41,50.88-20.94,76.42-31.35
			C877.28,324.77,880.42,337.39,879.84,349.04z"/>
		<path class="st13" d="M801.85,299.42c-1.2,15.93-5.63,32.11-11.37,47.09c-8.98-29.11-32.52-53.38-61.4-63.16
			c0.7-1.94,1.43-3.87,2.2-5.78C752.04,291.43,776.88,299.21,801.85,299.42z"/>
	</g>
	<path class="st5" d="M937.09,319.73c1.21-1.73,2.43-3.49,3.11-5.49c0.67-2,0.73-4.31-0.33-6.13c-0.89-1.52-2.47-2.54-4.14-3.11
		c-1.67-0.56-3.45-0.72-5.2-0.88l-0.8,10.17c-4.59,1.55-9.82,1.06-14.06-1.21c-4.78-2.56-10.8-1.68-14.03,2.67
		c-0.39,0.52-0.73,1.06-1.03,1.61c-2.2,4.04-2.34,8.84-2.42,13.43c-0.06,3.49-0.12,7.02,0.65,10.42c0.78,3.4,2.49,6.71,5.34,8.73
		c3.75,2.65,8.71,2.65,13.29,2.28c5.8-0.46,11.57-1.34,17.25-2.61C935.28,339.8,936.54,329.56,937.09,319.73z"/>
	<path class="st5" d="M866.86,317.92c-0.63-1.1-1.26-2.22-1.6-3.44c-0.34-1.22-0.36-2.58,0.22-3.72c0.55-1.09,1.59-1.85,2.63-2.49
		c2.64-1.62,5.85-2.8,8.91-3.34l0.71,10.44c2.72,0,5.47,0.57,8.07-0.26s5.03-2.13,7.67-2.81c2.64-0.68,5.65-0.66,7.84,0.97
		c2.22,1.65,3.08,4.53,3.81,7.2c1.46,5.35,2.93,10.82,2.61,16.37c-0.32,5.54-2.74,11.27-7.48,14.15c-4.01,2.43-8.97,2.51-13.66,2.46
		c-7.39-0.07-14.79-0.26-22.17-0.57C868.88,342.07,872.64,328.07,866.86,317.92z"/>
	<path class="st3" d="M1019.51,858.49c-8.02-0.21-16.1,1.14-23.59,4.05c-9.69,3.75-18.02,10.07-24.43,18.08
		c-5.15-2.11-10.27-4.33-15.35-6.62l16.24-68.89C988.85,822.17,1004.59,839.98,1019.51,858.49z"/>
	<path class="st3" d="M838.01,686.45c0.56-1.1,1.11-2.22,1.66-3.35c19.26-39.06,36.19-89.83,55.57-128.21
		c-9.36-3.47-19.12-6.29-28.49-9.77c-23.26,41.91-36.77,94.62-40.23,142.42l82.08,74.86l0.53-13.19
		C884.67,728.72,864.98,703.85,838.01,686.45z"/>
	<g class="st11">
		<path class="st14" d="M988.05,278.18c0.43-0.19,1.19,0.42,2.17,1.73c0.49,0.65,1.04,1.48,1.6,2.47c0.57,0.99,1.2,2.13,1.8,3.42
			c1.25,2.57,2.53,5.73,3.76,9.31c0.59,1.8,1.21,3.68,1.75,5.67c0.57,1.98,1.07,4.05,1.57,6.17c0.46,2.13,0.9,4.21,1.24,6.24
			c0.38,2.02,0.64,3.99,0.91,5.85c0.48,3.74,0.79,7.12,0.95,9.97c0.1,1.42,0.12,2.71,0.15,3.84c0.03,1.13,0.03,2.1,0,2.9
			c-0.05,1.59-0.16,2.48-0.35,2.5c-0.2,0.02-0.47-0.84-0.82-2.38c-0.39-1.85-0.86-4.02-1.39-6.53c-0.58-2.75-1.33-6-2.22-9.59
			c-0.47-1.79-0.92-3.67-1.47-5.61c-0.51-1.94-1.1-3.93-1.68-5.98c-0.62-2.03-1.22-4.01-1.8-5.93c-0.57-1.92-1.19-3.75-1.73-5.5
			c-1.13-3.5-2.14-6.65-2.96-9.33c-0.39-1.34-0.76-2.55-1.04-3.64c-0.27-1.09-0.5-2.03-0.64-2.82
			C987.56,279.36,987.62,278.38,988.05,278.18z"/>
	</g>
	<g class="st11">
		<path class="st14" d="M801.49,282.04c0.47-0.03,0.97,0.9,1.44,2.65c0.24,0.87,0.47,1.94,0.64,3.2c0.18,1.25,0.38,2.68,0.46,4.27
			c0.24,3.17,0.23,6.97-0.04,11.17c-0.18,2.1-0.34,4.3-0.68,6.57c-0.29,2.27-0.72,4.61-1.16,6.99c-0.51,2.37-1.02,4.69-1.63,6.89
			c-0.56,2.22-1.25,4.31-1.87,6.31c-1.33,3.98-2.7,7.5-4,10.38c-0.62,1.45-1.27,2.73-1.82,3.86c-0.55,1.13-1.07,2.08-1.52,2.84
			c-0.9,1.53-1.48,2.33-1.69,2.23c-0.21-0.09-0.03-1.07,0.44-2.76c0.27-0.93,0.56-1.94,0.88-3.06c0.34-1.19,0.76-2.53,1.16-4.03
			c0.85-2.98,1.75-6.56,2.65-10.53c0.41-2,0.89-4.08,1.27-6.26c0.43-2.17,0.77-4.44,1.15-6.75c0.31-2.32,0.65-4.58,0.89-6.78
			c0.29-2.19,0.45-4.31,0.67-6.33c0.36-4.04,0.64-7.68,0.86-10.76c0.15-1.54,0.22-2.93,0.36-4.16c0.14-1.23,0.26-2.29,0.4-3.17
			C800.63,283.06,801.03,282.07,801.49,282.04z"/>
	</g>
</g>
<g id="BUBLLE" class="st0">
	<path class="st15" d="M876.99,242.36l6.01,30.42l-24.33-21.9c-16.17,3.19-32.44,7.85-48.72,5.23
		c-16.28-2.62-32.09-10.85-41.47-24.41c-9.38-13.56-11.21-32.69-2.39-46.62c5.96-9.41,15.86-15.6,25.97-20.27
		c17.57-8.11,37.34-12.6,56.4-9.28c19.06,3.33,37.16,15.37,44.67,33.2C900.64,206.57,893.23,231.84,876.99,242.36z"/>
</g>
<g id="HEART" class="st0">
	<path class="st16" d="M824.99,229.09c2.98-5.66,8.49-9.48,13.9-12.89c5.41-3.41,11.09-6.8,14.78-12.02
		c3.69-5.22,4.8-12.9,0.73-17.83c-3.54-4.28-10.17-5.19-15.23-2.9c-5.06,2.29-8.74,7.2-10.34,12.52
		c-0.94-5.93-5.75-10.37-11.23-12.83c-5.48-2.46-12.35-1.69-16.96,2.16c-4.61,3.85-6.57,10.69-4.4,16.3
		c2.43,6.28,8.91,9.84,14.78,13.15C816.89,218.06,823.69,222.48,824.99,229.09z"/>
</g>
<g id="HASHTAG" class="st0">
	<path class="st16" d="M840.37,200.99c10.28-0.65,17.47-2.13,17.47-3.87c0-1.7-6.87-3.16-16.78-3.84
		c0.71-10.56,0.15-18.13-1.6-18.36c-1.79-0.23-4.29,7.26-6.28,18c-1.48-0.03-2.98-0.06-4.52-0.06c-1.31,0-2.58,0.02-3.85,0.04
		c0.67-10.37,0.11-17.76-1.62-17.98c-1.8-0.23-4.33,7.4-6.33,18.3c-10.24,0.65-17.39,2.13-17.39,3.86c0,1.66,6.58,3.1,16.15,3.8
		c-0.11,0.81-0.23,1.63-0.33,2.46c-0.15,1.16-0.28,2.3-0.4,3.42c-10.28,0.65-17.47,2.13-17.47,3.87c0,1.69,6.87,3.16,16.78,3.84
		c-0.71,10.56-0.15,18.13,1.6,18.36c1.79,0.23,4.29-7.26,6.28-18c1.48,0.03,2.98,0.06,4.52,0.06c1.31,0,2.58-0.02,3.85-0.04
		c-0.67,10.37-0.11,17.76,1.62,17.98c1.8,0.23,4.33-7.4,6.33-18.3c10.24-0.65,17.39-2.13,17.39-3.86c0-1.66-6.58-3.09-16.15-3.8
		c0.11-0.81,0.23-1.63,0.33-2.46C840.12,203.26,840.25,202.12,840.37,200.99z M826.6,206.42c-1.08,0-2.13,0.01-3.18,0.02
		c0.09-0.67,0.19-1.34,0.27-2.02c0.14-1.06,0.26-2.1,0.37-3.13c1.5,0.04,3.02,0.06,4.59,0.06c1.08,0,2.13-0.01,3.18-0.02
		c-0.09,0.67-0.19,1.34-0.27,2.02c-0.14,1.06-0.26,2.1-0.37,3.13C829.69,206.44,828.17,206.42,826.6,206.42z"/>
</g>
<g id="LAUGH">
	<g>
		<path class="st17" d="M827.64,170.4c-18.5,0-33.51,14.98-33.51,33.48c0,18.5,15,33.48,33.51,33.48
			c18.48,0,33.48-14.98,33.48-33.48C861.12,185.38,846.12,170.4,827.64,170.4z M809.49,203.88c-0.42-0.48,0.37-2.08,2.39-3.96
			c1.51-1.45,3.77-3,6.5-4.27c-3.68-4.03-7.01-6.55-6.5-7.56c0.28-0.57,1.97-0.46,4.38,0.63c2.39,1.07,5.47,3.22,8.08,6.39
			l2.23,2.67l-3.35,1.18l-0.53,0.18C815.64,201.54,810.43,204.89,809.49,203.88z M827.64,223.59c-8.63,0-15.61-6.99-15.61-15.59
			h31.21C843.23,216.61,836.25,223.59,827.64,223.59z M846.34,203.88c-0.94,1.01-6.13-2.34-13.18-4.73l-0.55-0.18l-3.35-1.18
			l2.23-2.67c2.63-3.18,5.69-5.32,8.1-6.39c2.41-1.1,4.1-1.2,4.38-0.63c0.48,1.01-2.85,3.53-6.53,7.56c2.74,1.27,4.99,2.83,6.5,4.27
			C845.97,201.8,846.78,203.4,846.34,203.88z"/>
		<path class="st17" d="M837.28,217.88c-2.65,2.12-6,3.37-9.64,3.37c-3.66,0-7.01-1.25-9.66-3.37c2.32-2.72,5.78-4.42,9.66-4.42
			C831.49,213.45,834.95,215.16,837.28,217.88z"/>
	</g>
</g>
<g id="LIKE" class="st0">
	<g class="st11">
		<path class="st17" d="M811.08,226.82c-1.27,1.1-2.85,1.76-4.45,1.85c-1.26,0.07-2.56-0.16-3.72-0.7
			c-1.25-9.21-1.23-18.64,0.02-27.83c2.62-1.01,5.7-0.55,7.98,1.31C809.48,210.02,809.44,218.26,811.08,226.82z"/>
		<path class="st17" d="M814.54,201.01c4.14-0.76,7.44-4.72,7.45-8.93c0-1.79-0.52-3.53-0.91-5.28c-0.38-1.75-0.62-3.6-0.06-5.3
			c0.56-1.7,2.12-3.18,3.91-3.13c1.32,0.04,2.51,0.9,3.25,2c0.74,1.09,1.09,2.4,1.37,3.69c0.94,4.45,1.05,9.08,0.33,13.57
			c4.41-1.83,9.22-2.81,14-2.79c2.72,0.01,5.68,0.43,7.58,2.38c1.67,1.71,2.15,4.47,1.17,6.65c-0.99,2.18-3.38,3.63-5.77,3.51
			c1.24,1.98,1.65,4.92,0.92,7.14c-0.72,2.23-2.47,4.1-4.63,4.97c1.83,3.19-0.07,7.84-3.49,9.2c-1.93,0.76-4.08,0.56-6.14,0.34
			c-6.31-0.67-12.61-1.33-18.92-2C812.64,218.23,812.76,209.84,814.54,201.01z"/>
	</g>
</g>
</svg>
