<?xml version="1.0" encoding="utf-8"?>
<!-- Generator: Adobe Illustrator 24.2.1, SVG Export Plug-In . SVG Version: 6.00 Build 0)  -->
<svg version="1.1" xmlns="http://www.w3.org/2000/svg" xmlns:xlink="http://www.w3.org/1999/xlink" x="0px" y="0px"
	 viewBox="0 0 1920 1080" style="enable-background:new 0 0 1920 1080;" xml:space="preserve">
<style type="text/css">
	.st0{display:none;}
	.st1{display:inline;}
	.st2{fill:#462261;}
	.st3{fill:#F55A37;}
	.st4{fill:#EA4B32;}
	.st5{fill:#FB446C;}
	.st6{fill:#C5205C;}
	.st7{fill:#F68895;}
	.st8{fill:#F17785;}
	.st9{fill:#462161;}
	.st10{fill:#E96077;}
	.st11{fill:#371A4F;}
	.st12{display:inline;fill:#FFDC5E;}
	.st13{display:inline;fill:#FFFFFF;}
	.st14{fill:#FFFFFF;}
</style>
<g id="GUY" class="st0">
	<g class="st1">
		<path class="st2" d="M1151.23,814.57c-5.29,8.43-1.83,19.59,4.67,27.43s15.57,13.49,23.28,20.35c7.7,6.86,14.38,15.91,13.71,25.68
			c-0.72,10.36-10.05,19-20.86,21.79s-22.65,0.53-32.87-4c-19.04-8.43-33.73-24.93-38.96-43.74c-5.23-18.81-0.89-39.56,11.51-55.02
			C1125.81,809.3,1137.1,812.31,1151.23,814.57z"/>
		<path class="st2" d="M770.75,811.58c4.54,8.86,0.13,19.67-7.03,26.92c-7.16,7.25-16.68,12.08-24.95,18.25
			c-8.27,6.16-15.71,14.6-15.88,24.39c-0.19,10.38,8.36,19.8,18.89,23.52c10.54,3.72,22.52,2.5,33.09-1.13
			c19.7-6.75,35.77-21.91,42.61-40.2c6.84-18.28,4.32-39.33-6.69-55.81C796.52,808.54,785.02,810.57,770.75,811.58z"/>
		<path class="st3" d="M1206.38,631.07c-0.21,2.31-0.55,4.63-1.02,6.94c-1.21,5.99-2.58,12.69-4.1,19.91
			c-10.96,52.14-29.22,131.31-45.35,163.59c-19.29,2.99-40.45,1.72-59.17-3.23c0-43.73-0.88-183.36-1.27-183.63
			c-39.96-27.96-87.54-42.13-135.22-42.51c-47.68,0.38-95.26,14.55-135.23,42.51c-0.39,0.27-1.27,139.9-1.27,183.63
			c-18.72,4.95-39.87,6.22-59.17,3.23c-21.64-43.35-38.12-126.16-49.46-183.92c-3.9-19.84,1.61-40.33,15.37-56.02
			c26.59-30.34,60.23-56.25,98.48-75.71c1.16-0.6,2.33-1.19,3.5-1.77c1.58-0.78,3.15-1.54,4.74-2.29
			c15.62-7.44,32.48-10.79,50.03-11.88c3.03-0.18,6.09-0.31,9.16-0.38c2.8-0.06,5.62-0.07,8.45-0.04
			c16.73,0.17,33.93,1.76,51.13,3.27c1.43,0.13,2.85,0.26,4.27,0.38c1.42-0.12,2.84-0.25,4.27-0.38c17.19-1.51,34.39-3.1,51.13-3.27
			c23.89-0.25,46.86,2.4,67.64,12.3c2.78,1.31,5.52,2.66,8.24,4.06c38.27,19.47,71.93,45.4,98.53,75.76
			C1202.3,595.6,1208.02,613.36,1206.38,631.07z"/>
		<path class="st4" d="M1206.38,631.07c-0.21,2.31-0.55,4.63-1.02,6.94c-1.21,5.99-2.58,12.69-4.1,19.91
			c-1.22-18.88-5.95-37.66-16.07-53.55c-22.26-34.96-66.36-49.84-107.75-51.99c-41.39-2.15-82.74,5.83-124.18,4.76
			c-48.38-1.24-96.39-15.07-138.02-39.76c28.79-6.92,54.97-16.52,81.16-27.84c2.8-0.06,5.62-0.07,8.45-0.04
			c16.73,0.17,33.93,1.76,51.13,3.27c1.43,0.13,2.85,0.26,4.27,0.38c1.42-0.12,2.84-0.25,4.27-0.38c17.19-1.51,34.39-3.1,51.13-3.27
			c23.89-0.25,46.86,2.4,67.64,12.3c2.78,1.31,5.52,2.66,8.24,4.06c38.27,19.47,71.93,45.4,98.53,75.76
			C1202.3,595.6,1208.02,613.36,1206.38,631.07z"/>
		<path class="st5" d="M1136.01,485.46c-4.7,10.41-10.63,20.53-17.82,29.77c-9.14,3.07-18.55,5.87-28.18,8.4
			c-2.33,0.61-4.68,1.21-7.04,1.79c-12.68,3.11-25.73,5.75-39.1,7.88c-1.97,0.32-3.96,0.62-5.94,0.9
			c-24.34,3.58-49.7,5.47-75.76,5.47c-56.56,0-109.82-8.9-156.47-24.6c-7.16-9.2-13.05-19.27-17.72-29.62
			c-15.31-33.89-18.42-71.9-9.72-107.57c3.84-15.77,9.99-31.08,18.43-45.37c27.51-46.61,78.77-81.54,136.42-92.97h57.79
			c0.21,0.04,0.42,0.08,0.63,0.13c39.17,7.88,75.34,26.61,103.08,52.48c1.03,0.96,2.05,1.93,3.05,2.9
			c8.29,8.07,15.77,16.78,22.28,26.05c2.62,3.72,5.08,7.53,7.38,11.42c13.23,22.41,20.85,47.33,22.74,72.59
			C1152.09,432.39,1147.47,460.08,1136.01,485.46z"/>
		<path class="st6" d="M1082.97,525.42c-12.68,3.11-25.73,5.75-39.1,7.88c-1.97,0.32-3.96,0.62-5.94,0.9
			c-9.72-13.75-23.08-25.14-38.6-32.38c-26.63-12.43-59.09-12.47-85.75-0.1c4.69-10.41,11.2-19.64,17.72-29.08
			c6.52-9.45,15.01-17.9,25.6-22.81c11.35-5.28,24.44-6.17,36.97-4.89c21.53,2.19,42.45,10.69,58.59,24.63
			c16.15,13.95,27.33,33.35,30.3,54.08C1082.82,524.23,1082.9,524.82,1082.97,525.42z"/>
		<path class="st7" d="M954.6,464.21c-27.05,28.53-62.23,55.8-99.79,76.46c-7.47,4.11-17.04,3.64-23.91-1.23
			c-19.43-13.77-33.59-33.3-42.93-53.98c-13.53-29.95-17.53-63.13-12.27-95.06c0.7-4.19,1.54-8.37,2.55-12.51
			c26.54,7.22,54.54,10.15,82.22,8.6c-5.59,19.63-7.34,40.4-4.75,60.62c1.04,8.23,2.81,16.37,5.32,24.3
			c15.38-10.78,32.2-19.67,49.63-27.57c9.69-4.39,17.53-12.06,21.31-21.74c0.68-1.76,1.62-3.44,2.77-4.99
			c3.82-5.15,10.51-8.51,17.44-8.76C952.8,427.07,953.97,445.49,954.6,464.21z"/>
		<path class="st8" d="M855.72,447.11c-4.87-12.98-13.3-24.9-24.45-34.31c-15.06-12.69-34.95-20.69-55.57-22.41
			c0.7-4.19,1.54-8.37,2.55-12.51c26.54,7.22,54.54,10.15,82.22,8.6C854.88,406.12,853.13,426.89,855.72,447.11z"/>
		<path class="st9" d="M999.92,395.97l-5.59,75.89c0,3.04-2.47,5.51-5.51,5.51h-29.91c-3.04,0-5.51-2.47-5.51-5.51l-3.37-75.14
			c0-3.04,2.47-5.5,5.51-5.5l38.87-0.76C997.45,390.47,999.92,392.93,999.92,395.97z"/>
		<path class="st7" d="M1150.52,417.7c0,23.15-4.8,46.28-14.5,67.76c-1.05,2.32-2.16,4.63-3.33,6.91c-0.29,0.58-0.59,1.15-0.9,1.73
			c-2.1,3.98-4.38,7.88-6.87,11.69c-0.48,0.72-0.95,1.44-1.44,2.16c-0.48,0.71-0.98,1.43-1.48,2.14c-0.5,0.71-1.01,1.42-1.53,2.12
			c-0.51,0.7-1.04,1.39-1.56,2.08c-0.45,0.59-0.91,1.18-1.37,1.76c-1.96,2.49-4.03,4.92-6.2,7.26c-0.29,0.32-0.6,0.65-0.89,0.96
			c-0.3,0.32-0.6,0.63-0.91,0.95c-0.31,0.32-0.61,0.63-0.92,0.94c-0.91,0.94-1.85,1.86-2.81,2.77c-0.32,0.3-0.64,0.61-0.96,0.91
			c-0.97,0.9-1.95,1.79-2.95,2.65c-0.37,0.32-0.74,0.64-1.11,0.94c-0.3,0.27-0.6,0.52-0.91,0.78c-0.77,0.65-1.56,1.28-2.35,1.9
			c-0.94,0.74-1.91,1.48-2.89,2.19c-0.36,0.27-0.72,0.53-1.08,0.79c-0.36,0.26-0.73,0.51-1.1,0.77c-0.36,0.26-0.73,0.51-1.1,0.76
			c-0.36,0.25-0.73,0.5-1.1,0.74c-0.32,0.21-2.24,1.32-4.33,2.52c-3.61,2.06-8.3,1.89-11.67-0.46c-0.02-0.01-0.04-0.03-0.06-0.04
			c-25.51-17.8-46.15-40.88-58.99-67.5c-11.1,1.72-22.87,1.87-34.14,0.09c-6.38-1-12.59-2.61-18.43-4.9
			c-3.48-15.07-3.43-30.96,0.07-46.03c2.84-0.82,5.67-1.48,8.51-1.98c6.84-1.23,13.7-1.58,20.72-1.14c1.87,0.11,4.14,0.45,6.02,0.68
			c0.17-6.89,1.4-14.49,1.56-21.38c3.04-0.2,4.63,0.27,7.63,0.75c3,0.49,5.95,1.75,7.76,3.94c2.75,3.33,2.26,7.89,1.65,11.99
			c-0.68,4.5-1.03,8.37-1.71,12.87c19.3,5.42,37.1,15.02,51.49,27.7c4.46-21.06,4-43.08-0.81-64.08c-0.6-2.66-1.28-5.29-2.02-7.9
			c27.69,1.55,55.68-1.38,82.22-8.6c2.18,8.96,3.63,18.07,4.31,27.22c0.07,0.88,0.13,1.77,0.18,2.66c0.02,0.4,0.05,0.8,0.06,1.2
			c0.05,0.77,0.08,1.55,0.11,2.33c0.01,0.07,0.01,0.15,0.02,0.24c0.04,0.98,0.06,1.96,0.08,2.94v0.09
			C1150.51,415.61,1150.52,416.65,1150.52,417.7z"/>
		<path class="st8" d="M1150.52,417.7c0,23.15-4.8,46.28-14.5,67.76c-1.05,2.32-2.16,4.63-3.33,6.91c-0.29,0.58-0.59,1.15-0.9,1.73
			c-2.1,3.98-4.38,7.88-6.87,11.69c-0.48,0.72-0.95,1.44-1.44,2.16c-0.48,0.71-0.98,1.43-1.48,2.14c-0.5,0.71-1.01,1.42-1.53,2.12
			c-0.51,0.7-1.04,1.39-1.56,2.08c-0.45,0.59-0.91,1.18-1.37,1.76c-1.96,2.49-4.03,4.92-6.2,7.26c-0.29,0.32-0.6,0.65-0.89,0.96
			c-0.3,0.32-0.6,0.63-0.91,0.95c-0.31,0.32-0.61,0.63-0.92,0.94c-0.91,0.94-1.85,1.86-2.81,2.77c-0.32,0.3-0.64,0.61-0.96,0.91
			c-0.97,0.9-1.95,1.79-2.95,2.65c-0.37,0.32-0.74,0.64-1.11,0.94c22.08-24.69,33.61-56.96,30.63-88.49
			c-1.1-11.57-4.27-23.47-12.62-32.37c-6.84-7.28-16.68-11.97-26.92-14.6c-8.55-2.2-17.44-3.07-26.33-3.6
			c-0.6-2.66-1.28-5.29-2.02-7.9c27.69,1.55,55.68-1.38,82.22-8.6c2.18,8.96,3.63,18.07,4.31,27.22c0.07,0.88,0.13,1.77,0.18,2.66
			c0.02,0.4,0.05,0.8,0.06,1.2c0.05,0.77,0.08,1.55,0.11,2.33c0.01,0.07,0.01,0.15,0.02,0.24c0.04,0.98,0.06,1.96,0.08,2.94v0.09
			C1150.51,415.61,1150.52,416.65,1150.52,417.7z"/>
		<g>
			<path class="st6" d="M1058.01,372.22c0.64-0.21,1.7,0.75,3.02,2.7c0.33,0.49,0.68,1.04,1.04,1.65c0.35,0.61,0.69,1.29,1.06,2.02
				c0.71,1.47,1.52,3.15,2.21,5.06c0.36,0.95,0.73,1.95,1.1,3c0.37,1.05,0.67,2.16,1.02,3.3c0.71,2.28,1.26,4.76,1.84,7.37
				c0.29,1.3,0.49,2.66,0.74,4.03c0.12,0.69,0.23,1.38,0.35,2.09c0.09,0.71,0.18,1.42,0.27,2.14c0.16,1.44,0.38,2.9,0.48,4.39
				c0.11,1.49,0.22,3,0.33,4.53c0.05,1.53,0.09,3.04,0.14,4.53c0.06,1.49-0.01,2.96-0.02,4.4c-0.01,0.72-0.02,1.43-0.03,2.14
				c-0.04,0.71-0.08,1.41-0.11,2.1c-0.09,1.38-0.13,2.74-0.25,4.05c-0.25,2.63-0.46,5.13-0.8,7.46c-0.16,1.16-0.29,2.29-0.47,3.36
				c-0.18,1.07-0.36,2.1-0.53,3.09c-0.31,1.97-0.72,3.73-1.03,5.28c-0.16,0.77-0.32,1.49-0.46,2.16c-0.16,0.65-0.31,1.25-0.45,1.8
				c-0.55,2.16-0.87,3.35-0.97,3.34c-0.1-0.02,0.02-1.24,0.26-3.44c0.06-0.56,0.13-1.17,0.21-1.83c0.05-0.68,0.11-1.4,0.18-2.18
				c0.11-1.56,0.29-3.34,0.34-5.31c0.04-0.99,0.08-2.01,0.12-3.08c0.04-1.07,0.01-2.19,0.02-3.34c0.04-2.31-0.08-4.77-0.16-7.36
				c-0.05-1.29-0.17-2.62-0.25-3.97c-0.05-0.68-0.09-1.36-0.14-2.05c-0.07-0.69-0.14-1.38-0.22-2.08c-0.16-1.4-0.25-2.82-0.46-4.26
				c-0.19-1.44-0.38-2.9-0.58-4.37c-0.24-1.47-0.48-2.92-0.71-4.35c-0.21-1.43-0.53-2.83-0.77-4.21c-0.13-0.69-0.25-1.37-0.38-2.05
				c-0.15-0.67-0.29-1.34-0.43-2c-0.29-1.32-0.53-2.62-0.83-3.87c-0.6-2.51-1.11-4.9-1.69-7.12c-0.28-1.11-0.51-2.2-0.78-3.23
				c-0.27-1.03-0.52-2.02-0.75-2.98c-0.42-1.91-0.89-3.62-1.21-5.16c-0.16-0.76-0.29-1.49-0.41-2.15c-0.13-0.66-0.24-1.27-0.32-1.82
				C1057.21,373.78,1057.37,372.43,1058.01,372.22z"/>
		</g>
		<g>
			<path class="st6" d="M868.72,362.93c0.53,0.19,0.42,1.81-0.26,4.55c-0.37,1.38-0.81,3.03-1.32,4.94
				c-0.51,1.92-1.22,4.06-1.83,6.48c-0.33,1.2-0.68,2.45-1.05,3.76c-0.37,1.31-0.67,2.68-1.04,4.1c-0.77,2.82-1.39,5.87-2.12,9.06
				c-0.36,1.6-0.62,3.25-0.95,4.93c-0.16,0.84-0.33,1.69-0.49,2.55c-0.13,0.86-0.26,1.73-0.39,2.61c-0.14,0.88-0.27,1.77-0.41,2.66
				c-0.15,0.89-0.28,1.8-0.37,2.71c-0.21,1.83-0.43,3.68-0.65,5.55c-0.15,1.88-0.29,3.74-0.43,5.57c-0.09,0.92-0.13,1.83-0.15,2.73
				c-0.03,0.9-0.07,1.8-0.1,2.69c-0.04,0.89-0.07,1.77-0.1,2.65c0,0.87,0.01,1.74,0.01,2.6c0.02,1.71-0.03,3.4,0.04,5.04
				c0.15,3.28,0.24,6.4,0.55,9.31c0.14,1.46,0.22,2.87,0.39,4.22c0.18,1.35,0.34,2.64,0.51,3.88c0.28,2.48,0.73,4.7,1.06,6.66
				c0.17,0.98,0.32,1.89,0.48,2.73c0.18,0.83,0.34,1.59,0.49,2.28c0.58,2.75,0.86,4.28,0.74,4.31c-0.13,0.03-0.66-1.45-1.56-4.14
				c-0.22-0.68-0.47-1.43-0.74-2.24c-0.25-0.82-0.48-1.73-0.76-2.7c-0.52-1.94-1.19-4.14-1.69-6.62c-0.28-1.24-0.56-2.53-0.86-3.88
				c-0.29-1.35-0.5-2.77-0.77-4.23c-0.57-2.93-0.93-6.08-1.36-9.4c-0.21-1.66-0.3-3.37-0.45-5.12c-0.07-0.87-0.14-1.76-0.21-2.65
				c-0.03-0.89-0.06-1.79-0.09-2.7c-0.03-0.91-0.06-1.83-0.09-2.75c-0.04-0.93-0.06-1.86-0.03-2.8c0.03-1.88,0.06-3.79,0.09-5.73
				c0.12-1.93,0.25-3.84,0.37-5.72c0.05-0.94,0.15-1.87,0.26-2.8c0.11-0.92,0.21-1.84,0.32-2.75c0.11-0.91,0.22-1.81,0.32-2.7
				c0.15-0.89,0.29-1.76,0.44-2.63c0.31-1.73,0.55-3.44,0.92-5.09c0.74-3.29,1.42-6.43,2.32-9.3c0.43-1.44,0.81-2.84,1.27-4.17
				c0.48-1.32,0.93-2.58,1.37-3.79c0.85-2.42,1.85-4.54,2.71-6.41c0.44-0.93,0.84-1.79,1.26-2.57c0.43-0.78,0.84-1.48,1.22-2.1
				C867.09,364.02,868.2,362.75,868.72,362.93z"/>
		</g>
		<path class="st6" d="M1119.92,321.1c-8.67-9.06-18.27-17.19-29.05-23.82c-24.27-14.93-55.5-21.3-82.37-11.35
			c-10.52,3.9-20.2,10.16-31.25,12.25c-15.11,2.86-31.44-2.86-40.92-14.59c9.46-14.18,19.14-30.11,30.49-44.05h24.07
			c0.21,0.04,0.42,0.08,0.63,0.13c39.17,7.88,75.34,26.61,103.08,52.48c1.03,0.96,2.05,1.93,3.05,2.9
			C1105.93,303.12,1113.41,311.83,1119.92,321.1z"/>
		<g>
			<path class="st2" d="M990.05,204.54c-0.47,4.39-0.93,8.78-1.39,13.17c-0.39,3.68-0.78,7.36-1.16,11.03
				c-9.35-2.99-18.67-4.2-28.23-4.16c-7.81-0.03-15.46,0.77-23.1,2.7c-1.71,0.43-3.42,0.92-5.13,1.46
				c-0.85-8.06-1.7-16.13-2.55-24.2c-0.56-5.34-1.12-10.84,0.24-16c2.37-9.03,10.26-15.41,18.64-18.08
				c0.78-0.25,1.56-0.47,2.34-0.67c4.68-1.17,9.51-1.47,14.27-0.9c1.63,0.2,3.25,0.49,4.85,0.9c0.08,0.02,0.15,0.04,0.23,0.06
				c0.71,0.18,1.41,0.38,2.11,0.61c8.39,2.67,16.28,9.05,18.64,18.08C991.16,193.7,990.6,199.2,990.05,204.54z"/>
			<path class="st2" d="M990.05,204.54c-0.47,4.39-0.93,8.78-1.39,13.17c-0.39,3.68-0.78,7.36-1.16,11.03
				c-9.35-2.99-18.67-4.2-28.23-4.16c-7.81-0.03-15.46,0.77-23.1,2.7c-1.51-1.16-2.95-2.41-4.32-3.73
				c1.81-5.56,6.17-10.23,11.6-12.41c5.72-2.28,12.17-1.84,18.08-3.59c5.85-1.74,11.06-5.79,13.84-11.23
				c2.78-5.44,2.95-12.23,0.09-17.63c-2.11-4-5.73-7.08-9.8-9.05c-0.55-0.27-1.11-0.51-1.68-0.75c1.63,0.2,3.25,0.49,4.85,0.9
				c0.08,0.02,0.15,0.04,0.23,0.06c0.71,0.18,1.41,0.38,2.11,0.61c8.39,2.67,16.28,9.05,18.64,18.08
				C991.16,193.7,990.6,199.2,990.05,204.54z"/>
			<path class="st10" d="M984.12,244.66c0.79-1.46,2.28-2.52,3.91-2.78c1.64-0.26,3.38,0.27,4.59,1.41
				c1.97,1.86,2.28,4.86,2.25,7.57c-0.03,3.31-0.43,6.79-2.33,9.5c-1.9,2.71-5.71,4.32-8.66,2.8
				C983.69,257.22,984.31,250.61,984.12,244.66z"/>
			<path class="st8" d="M934.4,244.66c-0.79-1.46-2.28-2.52-3.91-2.78c-1.64-0.26-3.38,0.27-4.59,1.41
				c-1.97,1.86-2.28,4.86-2.25,7.57c0.03,3.31,0.43,6.79,2.33,9.5c1.9,2.71,5.71,4.32,8.66,2.8
				C934.83,257.22,934.21,250.61,934.4,244.66z"/>
			<path class="st2" d="M944.46,213.45c-2.68,0.88-5.38,1.77-7.8,3.22c-2.42,1.45-4.56,3.52-5.56,6.16
				c-1.02,2.68-0.78,5.65-0.53,8.5c0.86,9.7,1.72,19.39,2.58,29.09C934.95,244.25,938.69,228.66,944.46,213.45z"/>
			<path class="st11" d="M974.06,213.45c2.68,0.88,5.38,1.77,7.79,3.22c2.42,1.45,4.56,3.52,5.56,6.16c1.02,2.68,0.78,5.65,0.53,8.5
				c-0.86,9.7-1.72,19.39-2.58,29.09C983.57,244.25,979.83,228.66,974.06,213.45z"/>
			<path class="st7" d="M986.1,279.62c-2.23,8.15-9.41,13.84-17,15.7c-3.24,0.8-6.53,1-9.84,0.81c-2.02,0.12-4.04,0.09-6.05-0.14
				c-0.89-0.1-1.78-0.24-2.66-0.42c-0.38-0.07-0.76-0.16-1.14-0.25c-7.59-1.87-14.77-7.55-17-15.7c-1.25-4.53-0.89-9.38-0.53-14.09
				c1.05-13.76,2.1-27.53,3.15-41.29c0.42-0.09,0.85-0.19,1.28-0.28c0.44-0.09,0.89-0.19,1.34-0.27c6.98-1.41,14.38-2.36,21.6-2.76
				c8.12,0.46,16.48,1.6,24.22,3.31c1.05,13.76,2.1,27.53,3.15,41.29C986.99,270.24,987.34,275.09,986.1,279.62z"/>
			<path class="st8" d="M986.1,279.62c-2.23,8.15-9.41,13.84-17,15.7c-3.24,0.8-6.53,1-9.84,0.81c-2.02,0.12-4.04,0.09-6.05-0.14
				c3.79-0.09,7.53-0.78,11.04-2.26c9.79-4.14,16.5-14.64,16.14-25.26c-0.36-10.62-7.76-20.65-17.8-24.12
				c-4.09-1.42-8.61-1.87-12.14-4.36c-3.07-2.17-4.97-5.58-6.99-8.75c-1.85-2.91-4.06-5.84-7.15-7.29c0.44-0.09,0.89-0.19,1.34-0.27
				c6.98-1.41,14.38-2.36,21.6-2.76c8.12,0.46,16.48,1.6,24.22,3.31c1.05,13.76,2.1,27.53,3.15,41.29
				C986.99,270.24,987.34,275.09,986.1,279.62z"/>
			<path class="st2" d="M935.04,224.24c0.67-4.26,3.54-7.7,6.96-10.33c3.42-2.63,7.86-3.89,12.15-3.44c2.48,0.26,4.92,1.06,7.4,0.83
				c4.59-0.42,8.1-4.16,10.86-7.85c2.76-3.69,5.5-7.78,9.77-9.5c5.16-2.08,11.45,0.16,14.86,4.55c3.41,4.39,4.14,10.48,2.8,15.87
				s-4.56,10.17-8.38,14.21c-4.06,4.31-8.93,7.97-14.5,9.97c-5.57,2-11.89,2.24-17.36-0.03c-4.38-1.82-7.96-5.08-11.7-8.01
				C944.17,227.6,939.77,224.61,935.04,224.24z"/>
		</g>
	</g>
</g>
<g id="BUBLLE" class="st0">
	<path class="st12" d="M997.96,358.71l-3.32,28.1l20.58-21.64c14.94,1.76,30.07,4.84,44.7,1.31c14.62-3.53,28.43-12.14,36-25.14
		c7.57-13,7.89-30.54-1.12-42.59c-6.09-8.14-15.53-13.07-25.06-16.61c-16.56-6.14-34.87-8.83-51.98-4.45
		c-17.11,4.37-32.73,16.61-38.29,33.37C973.92,327.82,982.44,350.29,997.96,358.71z"/>
</g>
<g id="HEART" class="st0">
	<path class="st13" d="M1038.99,348.09c2.98-5.66,8.49-9.48,13.9-12.89c5.41-3.41,11.09-6.8,14.79-12.02
		c3.69-5.22,4.8-12.9,0.73-17.83c-3.54-4.28-10.17-5.19-15.23-2.9c-5.06,2.29-8.74,7.2-10.34,12.52
		c-0.94-5.93-5.75-10.37-11.23-12.83s-12.35-1.69-16.96,2.16c-4.61,3.85-6.57,10.69-4.4,16.3c2.43,6.28,8.91,9.84,14.78,13.15
		C1030.89,337.06,1037.69,341.48,1038.99,348.09z"/>
</g>
<g id="HASHTAG">
	<path class="st14" d="M1054.37,319.99c10.28-0.65,17.47-2.13,17.47-3.87c0-1.7-6.87-3.16-16.78-3.84
		c0.71-10.56,0.15-18.13-1.6-18.36c-1.79-0.23-4.29,7.26-6.28,18c-1.48-0.03-2.98-0.06-4.52-0.06c-1.31,0-2.58,0.02-3.85,0.04
		c0.67-10.37,0.11-17.76-1.62-17.98c-1.8-0.23-4.33,7.4-6.33,18.3c-10.24,0.65-17.39,2.13-17.39,3.86c0,1.66,6.58,3.1,16.15,3.8
		c-0.11,0.81-0.23,1.63-0.33,2.46c-0.15,1.16-0.28,2.3-0.4,3.42c-10.28,0.65-17.47,2.13-17.47,3.87c0,1.69,6.87,3.16,16.78,3.84
		c-0.71,10.56-0.15,18.13,1.6,18.36c1.79,0.23,4.29-7.26,6.28-18c1.48,0.03,2.98,0.06,4.52,0.06c1.31,0,2.58-0.02,3.85-0.04
		c-0.67,10.37-0.11,17.76,1.62,17.98c1.8,0.23,4.33-7.4,6.33-18.3c10.24-0.65,17.39-2.13,17.39-3.86c0-1.66-6.58-3.09-16.15-3.8
		c0.11-0.81,0.23-1.63,0.33-2.46C1054.12,322.26,1054.25,321.12,1054.37,319.99z M1040.6,325.42c-1.08,0-2.13,0.01-3.18,0.02
		c0.09-0.67,0.19-1.34,0.27-2.02c0.14-1.06,0.26-2.1,0.37-3.13c1.5,0.04,3.02,0.06,4.59,0.06c1.08,0,2.13-0.01,3.18-0.02
		c-0.09,0.67-0.19,1.34-0.27,2.02c-0.14,1.06-0.26,2.1-0.37,3.13C1043.69,325.44,1042.17,325.42,1040.6,325.42z"/>
</g>
<g id="LAUGH" class="st0">
	<g class="st1">
		<path class="st14" d="M1041.64,289.4c-18.5,0-33.51,14.98-33.51,33.48c0,18.5,15,33.48,33.51,33.48
			c18.48,0,33.48-14.98,33.48-33.48C1075.12,304.38,1060.12,289.4,1041.64,289.4z M1023.49,322.88c-0.42-0.48,0.37-2.08,2.39-3.96
			c1.51-1.45,3.77-3,6.5-4.27c-3.68-4.03-7.01-6.55-6.5-7.56c0.28-0.57,1.97-0.46,4.38,0.64c2.39,1.07,5.47,3.22,8.08,6.39
			l2.23,2.67l-3.35,1.18l-0.53,0.17C1029.64,320.54,1024.43,323.89,1023.49,322.88z M1041.64,342.59c-8.63,0-15.61-6.99-15.61-15.59
			h31.21C1057.23,335.61,1050.25,342.59,1041.64,342.59z M1060.34,322.88c-0.94,1.01-6.13-2.34-13.18-4.73l-0.55-0.17l-3.35-1.18
			l2.23-2.67c2.63-3.18,5.69-5.32,8.1-6.39c2.41-1.1,4.1-1.2,4.38-0.64c0.48,1.01-2.85,3.53-6.53,7.56c2.74,1.27,4.99,2.83,6.5,4.27
			C1059.97,320.8,1060.78,322.4,1060.34,322.88z"/>
		<path class="st14" d="M1051.28,336.88c-2.65,2.12-6,3.37-9.64,3.37c-3.66,0-7.01-1.25-9.66-3.37c2.32-2.72,5.78-4.42,9.66-4.42
			C1045.49,332.45,1048.95,334.16,1051.28,336.88z"/>
	</g>
</g>
<g id="LIKE" class="st0">
	<g class="st1">
		<path class="st14" d="M1025.08,345.82c-1.27,1.1-2.85,1.76-4.45,1.85c-1.26,0.07-2.56-0.16-3.72-0.7
			c-1.25-9.21-1.23-18.64,0.02-27.83c2.62-1.01,5.7-0.55,7.98,1.31C1023.48,329.02,1023.44,337.26,1025.08,345.82z"/>
		<path class="st14" d="M1028.54,320.01c4.14-0.76,7.44-4.72,7.45-8.93c0-1.79-0.52-3.53-0.91-5.28c-0.38-1.75-0.62-3.6-0.06-5.3
			c0.56-1.7,2.12-3.18,3.91-3.13c1.32,0.04,2.51,0.9,3.25,2c0.74,1.09,1.09,2.4,1.37,3.69c0.94,4.45,1.05,9.08,0.33,13.57
			c4.41-1.83,9.22-2.81,14-2.79c2.72,0.01,5.68,0.43,7.58,2.38c1.67,1.71,2.15,4.47,1.17,6.65c-0.99,2.18-3.38,3.63-5.77,3.51
			c1.24,1.98,1.65,4.92,0.92,7.14c-0.72,2.23-2.47,4.1-4.63,4.97c1.83,3.19-0.07,7.84-3.49,9.2c-1.93,0.76-4.08,0.56-6.14,0.34
			c-6.31-0.67-12.61-1.33-18.92-2C1026.64,337.23,1026.76,328.84,1028.54,320.01z"/>
	</g>
</g>
</svg>
